<svg xmlns="http://www.w3.org/2000/svg" width="1448" height="258" fill="none"><g filter="url(#a)"><path fill="#3A3054" d="M4 0h1440v250H4z"/></g><mask id="b" width="1440" height="250" x="4" y="0" maskUnits="userSpaceOnUse" style="mask-type:luminance"><path fill="#fff" d="M4 0h1440v250H4z"/></mask><g fill="#4B3F6B" fill-rule="evenodd" clip-rule="evenodd" mask="url(#b)"><path d="M834-63.481C834 19.35 858.361 78.678 948.732 117c90.368 38.321 177.688 3.352 265.278 23.4 87.59 20.048 87.59 149.195 170.08 228.671 82.48 79.476 256.4 98.781 397.82 18.15 141.41-80.632 205.52-268.896 163.26-379.902C1902.92-103.687 1821.94-205 1431.24-205 1040.53-205 834-146.314 834-63.481ZM-259.351 570.909c29.685 77.331 73.689 123.988 171.79 127.377 98.102 3.39 167.085-60.547 256.043-73.22 88.958-12.674 135.24 107.895 240.729 152.532 105.489 44.638 274.776.333 377.902-125.622 103.126-125.955 95.506-324.687 16.278-413.178-79.229-88.491-191.134-154.055-555.89-14.038-364.757 140.017-536.537 268.818-506.852 346.149ZM-510-377.482c0 82.833 24.361 142.161 114.732 180.482s177.686 3.352 265.277 23.4c87.59 20.048 87.59 149.195 170.077 228.671 82.486 79.476 256.405 98.781 397.82 18.15C579.321-7.412 643.427-195.675 601.173-306.681 558.919-417.687 477.943-519 87.236-519S-510-460.314-510-377.482Z"/></g><defs><filter id="a" width="1448" height="258" x="0" y="0" color-interpolation-filters="sRGB" filterUnits="userSpaceOnUse"><feFlood flood-opacity="0" result="BackgroundImageFix"/><feColorMatrix in="SourceAlpha" result="hardAlpha" values="0 0 0 0 0 0 0 0 0 0 0 0 0 0 0 0 0 0 127 0"/><feOffset dy="4"/><feGaussianBlur stdDeviation="2"/><feComposite in2="hardAlpha" operator="out"/><feColorMatrix values="0 0 0 0 0 0 0 0 0 0 0 0 0 0 0 0 0 0 0.25 0"/><feBlend in2="BackgroundImageFix" result="effect1_dropShadow_0_948"/><feBlend in="SourceGraphic" in2="effect1_dropShadow_0_948" result="shape"/></filter></defs></svg>